<svg width="1360" height="385" viewBox="0 0 1360 385" fill="none" xmlns="http://www.w3.org/2000/svg">
<path d="M189.833 380.181C173.743 380.181 165.698 376.611 165.698 369.471L160.003 154.75L126.919 372.149C126.196 376.433 120.049 378.574 108.478 378.574C96.908 378.574 90.942 376.611 90.5804 372.684L56.4114 152.608L52.6149 366.259C52.4341 371.613 48.9991 375.362 42.31 377.503C35.6208 379.288 30.0164 380.181 25.4967 380.181C21.1577 380.181 16.9092 379.645 12.7511 378.574C4.07327 376.076 -0.175254 371.613 0.00553431 365.188L6.24273 17.1349C6.24273 8.56746 17.2708 4.28374 39.327 4.28374C45.8353 4.28374 53.79 5.35466 63.191 7.49652C72.592 9.28141 77.8348 13.0297 78.9195 18.7413L109.292 187.413L135.868 18.2059C137.495 8.92444 149.969 4.28374 173.291 4.28374C179.98 4.28374 187.935 5.35466 197.155 7.49652C206.556 9.28141 211.256 12.6727 211.256 17.6704L219.121 368.936C219.121 372.863 215.595 375.719 208.545 377.503C201.494 379.288 195.257 380.181 189.833 380.181Z" fill="black"/>
<path d="M395.179 380.716C379.451 380.716 370.954 375.719 369.688 365.723L360.739 296.648H317.621L309.757 363.046C308.672 374.112 299.994 379.645 283.724 379.645C275.046 379.645 268.628 378.753 264.47 376.968C260.311 374.826 258.232 373.22 258.232 372.149L306.232 9.63839C306.232 6.78257 318.616 5.35465 343.384 5.35465C368.152 5.35465 380.536 6.78257 380.536 9.63839L427.45 372.684C427.45 375.183 423.292 377.146 414.976 378.574C406.659 380.002 400.061 380.716 395.179 380.716ZM324.401 228.644H352.875L340.672 117.803H339.045L324.401 228.644Z" fill="black"/>
<path d="M467.117 355.014V33.7344C467.117 24.8099 468.202 17.8489 470.371 12.8512C472.721 7.49652 475.704 4.81919 479.32 4.81919H524.607C553.353 4.81919 575.138 19.0983 589.962 47.6565C604.968 76.2147 612.47 121.194 612.47 182.594C612.47 313.962 584.087 379.645 527.319 379.645H480.947C471.727 379.645 467.117 371.435 467.117 355.014ZM519.184 106.558V266.662C519.184 274.159 519.455 278.978 519.997 281.12C520.54 282.905 522.167 283.797 524.879 283.797C534.822 283.797 542.325 276.479 547.387 261.843C552.63 247.207 555.251 222.932 555.251 189.019C555.251 154.75 552.539 132.439 547.116 122.086C541.873 111.734 533.466 106.558 521.896 106.558H519.184Z" fill="black"/>
<path d="M744.051 153.679C747.486 153.679 749.204 166.173 749.204 191.161C749.204 198.658 748.752 207.582 747.848 217.935C747.124 227.93 745.678 232.928 743.509 232.928H709.069V286.474H758.966C762.039 286.474 764.119 294.328 765.203 310.035C765.746 316.817 766.017 324.135 766.017 331.989C766.017 339.485 765.474 349.302 764.39 361.439C763.305 373.577 761.497 379.645 758.966 379.645H666.222C659.352 379.645 655.917 374.112 655.917 363.046V18.7413C655.917 9.4599 657.996 4.81919 662.154 4.81919H759.237C763.034 4.81919 764.932 20.7047 764.932 52.4757C764.932 83.8897 763.034 99.5967 759.237 99.5967H709.069V153.679H744.051Z" fill="black"/>
<path d="M829.247 287.545V96.9194H809.993C806.919 96.9194 804.75 89.2443 803.484 73.8943C802.942 66.3978 802.671 58.7228 802.671 50.8693C802.671 43.0158 802.942 35.3408 803.484 27.8442C804.75 12.4942 806.919 4.81919 809.993 4.81919H901.11C904.183 4.81919 906.262 12.4942 907.347 27.8442C908.07 35.3408 908.432 43.0158 908.432 50.8693C908.432 58.7228 908.07 66.3978 907.347 73.8943C906.262 89.2443 904.183 96.9194 901.11 96.9194H882.941V287.545H901.924C904.997 287.545 907.166 295.22 908.432 310.57C909.155 318.067 909.517 325.742 909.517 333.595C909.517 341.449 909.155 349.124 908.432 356.62C907.166 371.97 904.997 379.645 901.924 379.645H810.535C807.462 379.645 805.383 371.97 804.298 356.62C803.575 349.124 803.213 341.449 803.213 333.595C803.213 325.742 803.575 318.067 804.298 310.57C805.383 295.22 807.462 287.545 810.535 287.545H829.247Z" fill="black"/>
<path d="M1001.1 372.149C1001.1 377.86 992.51 380.716 975.336 380.716C957.98 380.716 949.302 378.039 949.302 372.684V23.5605C949.302 11.0663 952.647 4.81919 959.336 4.81919H1011.13C1058.68 4.81919 1082.45 41.4094 1082.45 114.59C1082.45 136.722 1080.28 156.892 1075.94 175.097C1071.61 192.946 1065.46 207.225 1057.5 217.935L1091.67 330.382C1090.23 338.95 1085.53 348.767 1077.57 359.833C1066.72 375.183 1057.77 382.858 1050.72 382.858C1043.67 382.858 1038.43 377.86 1035 367.865L1009.5 250.598H1001.1V372.149ZM1001.1 99.5967V179.917H1002.45C1019.63 179.917 1028.22 165.816 1028.22 137.615C1028.22 124.764 1026.5 115.304 1023.06 109.235C1019.81 102.809 1014.39 99.5967 1006.79 99.5967H1001.1Z" fill="black"/>
<path d="M1211.49 385C1186.18 385 1165.48 368.579 1149.39 335.737C1133.48 302.895 1125.53 255.06 1125.53 192.232C1125.53 129.047 1133.57 81.2123 1149.66 48.7274C1165.93 16.2425 1186.82 0 1212.31 0C1237.98 0 1258.68 16.064 1274.41 48.1919C1290.14 79.9629 1298 128.333 1298 193.303C1298 257.916 1289.95 306.108 1273.86 337.879C1257.77 369.293 1236.98 385 1211.49 385ZM1211.76 102.809C1203.09 102.809 1195.76 110.663 1189.8 126.37C1184.01 142.077 1181.12 164.21 1181.12 192.768C1181.12 220.969 1183.92 242.745 1189.53 258.095C1195.13 273.088 1202.45 280.584 1211.49 280.584C1220.71 280.584 1228.13 272.909 1233.73 257.559C1239.52 242.209 1242.41 220.255 1242.41 191.697C1242.41 163.139 1239.42 141.185 1233.46 125.834C1227.67 110.484 1220.44 102.809 1211.76 102.809Z" fill="black"/>
<path d="M1330.16 27.4215H1320.63L1320.55 23.1463H1329.42C1330.64 23.124 1331.77 22.957 1332.82 22.6453C1333.9 22.3336 1334.76 21.8882 1335.4 21.3093C1336.07 20.7081 1336.41 19.9733 1336.41 19.1049C1336.41 17.9915 1336.16 17.112 1335.66 16.4663C1335.17 15.8205 1334.34 15.3529 1333.17 15.0635C1332.04 14.774 1330.48 14.6293 1328.5 14.6293H1322.56V38.7108H1316.39V10.3874H1328.5C1331.38 10.3874 1333.87 10.6992 1335.97 11.3226C1338.07 11.9461 1339.68 12.8925 1340.82 14.1617C1341.95 15.4086 1342.52 16.9895 1342.52 18.9045C1342.52 20.1069 1342.16 21.1868 1341.43 22.1443C1340.7 23.1018 1339.64 23.9256 1338.24 24.6159C1336.84 25.3062 1335.14 25.8628 1333.13 26.2859C1333.04 26.2859 1332.94 26.3638 1332.82 26.5197C1332.74 26.6533 1332.65 26.7201 1332.56 26.7201C1332.07 26.9428 1331.75 27.1098 1331.6 27.2211C1331.48 27.3102 1331.35 27.3658 1331.21 27.3881C1331.09 27.4104 1330.74 27.4215 1330.16 27.4215ZM1329.72 27.4215L1330.59 24.4155C1335.11 24.4155 1338.18 25.1503 1339.81 26.6199C1341.47 28.0672 1342.3 29.9043 1342.3 32.1309V33.9345C1342.3 34.7584 1342.36 35.5489 1342.48 36.3059C1342.6 37.0407 1342.79 37.6642 1343.05 38.1764V38.7108H1336.71C1336.42 38.1318 1336.25 37.3079 1336.19 36.2391C1336.16 35.1703 1336.14 34.391 1336.14 33.9011V32.1643C1336.14 30.5389 1335.65 29.3476 1334.66 28.5905C1333.7 27.8112 1332.05 27.4215 1329.72 27.4215ZM1303.02 24.9499C1303.02 27.9114 1303.69 30.6725 1305.03 33.2331C1306.37 35.7938 1308.24 38.0316 1310.63 39.9466C1313.02 41.8615 1315.78 43.3534 1318.93 44.4222C1322.07 45.491 1325.44 46.0254 1329.02 46.0254C1332.6 46.0254 1335.95 45.491 1339.07 44.4222C1342.22 43.3534 1344.97 41.8615 1347.33 39.9466C1349.72 38.0316 1351.58 35.7938 1352.92 33.2331C1354.26 30.6725 1354.93 27.9114 1354.93 24.9499C1354.93 21.9662 1354.26 19.2051 1352.92 16.6667C1351.58 14.1283 1349.72 11.9127 1347.33 10.02C1344.97 8.1051 1342.22 6.62436 1339.07 5.57782C1335.95 4.50902 1332.6 3.97462 1329.02 3.97462C1325.44 3.97462 1322.07 4.50902 1318.93 5.57782C1315.78 6.62436 1313.02 8.1051 1310.63 10.02C1308.24 11.9127 1306.37 14.1283 1305.03 16.6667C1303.69 19.2051 1303.02 21.9662 1303.02 24.9499ZM1298 24.9499C1298 21.4095 1298.8 18.1251 1300.4 15.0969C1302.01 12.0686 1304.23 9.42997 1307.09 7.18103C1309.94 4.90982 1313.23 3.15075 1316.96 1.90381C1320.72 0.634603 1324.74 0 1329.02 0C1333.3 0 1337.31 0.634603 1341.04 1.90381C1344.79 3.15075 1348.09 4.90982 1350.91 7.18103C1353.77 9.42997 1355.99 12.0686 1357.6 15.0969C1359.2 18.1251 1360 21.4095 1360 24.9499C1360 28.4903 1359.2 31.7747 1357.6 34.8029C1355.99 37.8312 1353.77 40.4921 1350.91 42.7856C1348.09 45.0568 1344.79 46.827 1341.04 48.0962C1337.31 49.3654 1333.3 50 1329.02 50C1324.74 50 1320.72 49.3654 1316.96 48.0962C1313.23 46.827 1309.94 45.0568 1307.09 42.7856C1304.23 40.4921 1302.01 37.8312 1300.4 34.8029C1298.8 31.7747 1298 28.4903 1298 24.9499Z" fill="black"/>
</svg>
