<svg width="117" height="33" viewBox="0 0 117 33" fill="none" xmlns="http://www.w3.org/2000/svg">
<g clip-path="url(#clip0_56_6817)">
<path d="M16.3801 32.5869C14.9917 32.5869 14.2975 32.2809 14.2975 31.669L13.8061 13.2643L10.9514 31.8985C10.889 32.2656 10.3586 32.4492 9.36023 32.4492C8.36186 32.4492 7.84707 32.2809 7.81587 31.9444L4.86755 13.0807L4.53996 31.3936C4.52436 31.8526 4.22797 32.1739 3.65078 32.3574C3.0736 32.5104 2.59001 32.5869 2.20002 32.5869C1.82563 32.5869 1.45904 32.541 1.10025 32.4492C0.351468 32.235 -0.015122 31.8526 0.000477537 31.3018L0.538664 1.46871C0.538664 0.734354 1.49024 0.367177 3.39339 0.367177C3.95497 0.367177 4.64136 0.458971 5.45254 0.642559C6.26371 0.795549 6.7161 1.11683 6.8097 1.6064L9.43043 16.064L11.7236 1.5605C11.864 0.764952 12.9403 0.367177 14.9527 0.367177C15.5299 0.367177 16.2163 0.458971 17.0118 0.642559C17.823 0.795549 18.2286 1.08623 18.2286 1.5146L18.9072 31.6231C18.9072 31.9597 18.603 32.2044 17.9946 32.3574C17.3862 32.5104 16.848 32.5869 16.3801 32.5869Z" fill="black"/>
<path d="M34.0987 32.6328C32.7415 32.6328 32.0083 32.2045 31.8991 31.3477L31.127 25.427H27.4065L26.7279 31.1182C26.6343 32.0668 25.8855 32.541 24.4815 32.541C23.7328 32.541 23.179 32.4645 22.8202 32.3115C22.4614 32.128 22.282 31.9903 22.282 31.8985L26.4237 0.826148C26.4237 0.581363 27.4923 0.45897 29.6294 0.45897C31.7665 0.45897 32.8351 0.581363 32.8351 0.826148L36.8832 31.9444C36.8832 32.1586 36.5244 32.3268 35.8068 32.4492C35.0893 32.5716 34.5199 32.6328 34.0987 32.6328ZM27.9914 19.5981H30.4484L29.3954 10.0974H29.255L27.9914 19.5981Z" fill="black"/>
<path d="M40.3059 30.4298V2.89152C40.3059 2.12657 40.3995 1.5299 40.5867 1.10153C40.7895 0.642559 41.0469 0.413074 41.3589 0.413074H45.2666C47.7469 0.413074 49.6267 1.637 50.9058 4.08484C52.2006 6.53269 52.848 10.388 52.848 15.6509C52.848 26.911 50.3989 32.541 45.5006 32.541H41.4993C40.7037 32.541 40.3059 31.8373 40.3059 30.4298ZM44.7986 9.13352V22.8567C44.7986 23.4993 44.822 23.9124 44.8688 24.096C44.9156 24.249 45.056 24.3255 45.29 24.3255C46.148 24.3255 46.7954 23.6982 47.2321 22.4437C47.6845 21.1892 47.9107 19.1085 47.9107 16.2017C47.9107 13.2643 47.6767 11.3519 47.2087 10.4645C46.7564 9.57719 46.031 9.13352 45.0326 9.13352H44.7986Z" fill="black"/>
<path d="M64.2016 13.1725C64.498 13.1725 64.6462 14.2434 64.6462 16.3853C64.6462 17.0278 64.6072 17.7928 64.5292 18.6801C64.4668 19.5369 64.342 19.9652 64.1548 19.9652H61.1831V24.5549H65.4886C65.7538 24.5549 65.9332 25.2281 66.0268 26.5744C66.0736 27.1558 66.097 27.783 66.097 28.4562C66.097 29.0987 66.0502 29.9402 65.9566 30.9805C65.863 32.0209 65.707 32.541 65.4886 32.541H57.486C56.8932 32.541 56.5968 32.0668 56.5968 31.1182V1.6064C56.5968 0.810849 56.7762 0.413074 57.135 0.413074H65.512C65.8396 0.413074 66.0034 1.77469 66.0034 4.49792C66.0034 7.19054 65.8396 8.53686 65.512 8.53686H61.1831V13.1725H64.2016Z" fill="black"/>
<path d="M71.5529 24.6467V8.30737H69.8915C69.6263 8.30737 69.4391 7.64951 69.3299 6.3338C69.2831 5.69124 69.2597 5.03338 69.2597 4.36022C69.2597 3.68707 69.2831 3.02921 69.3299 2.38665C69.4391 1.07093 69.6263 0.413074 69.8915 0.413074H77.7537C78.0189 0.413074 78.1983 1.07093 78.2919 2.38665C78.3543 3.02921 78.3855 3.68707 78.3855 4.36022C78.3855 5.03338 78.3543 5.69124 78.2919 6.3338C78.1983 7.64951 78.0189 8.30737 77.7537 8.30737H76.186V24.6467H77.8239C78.0891 24.6467 78.2763 25.3046 78.3855 26.6203C78.4479 27.2629 78.4791 27.9207 78.4791 28.5939C78.4791 29.267 78.4479 29.9249 78.3855 30.5675C78.2763 31.8832 78.0891 32.541 77.8239 32.541H69.9383C69.6731 32.541 69.4937 31.8832 69.4001 30.5675C69.3377 29.9249 69.3065 29.267 69.3065 28.5939C69.3065 27.9207 69.3377 27.2629 69.4001 26.6203C69.4937 25.3046 69.6731 24.6467 69.9383 24.6467H71.5529Z" fill="black"/>
<path d="M86.3813 31.8985C86.3813 32.388 85.6404 32.6328 84.1584 32.6328C82.6608 32.6328 81.912 32.4033 81.912 31.9444V2.01947C81.912 0.94854 82.2006 0.413074 82.7778 0.413074H87.2471C91.3498 0.413074 93.4011 3.54937 93.4011 9.82198C93.4011 11.7191 93.2139 13.4478 92.8396 15.0083C92.4652 16.5382 91.9348 17.7622 91.2484 18.6801L94.1967 28.3185C94.0719 29.0528 93.6663 29.8943 92.9799 30.8428C92.044 32.1586 91.2718 32.8164 90.6634 32.8164C90.055 32.8164 89.6026 32.388 89.3063 31.5313L87.1067 21.4798H86.3813V31.8985ZM86.3813 8.53686V15.4214H86.4983C87.9803 15.4214 88.7213 14.2128 88.7213 11.7955C88.7213 10.694 88.5731 9.88317 88.2767 9.36301C87.9959 8.81224 87.5279 8.53686 86.8727 8.53686H86.3813Z" fill="black"/>
<path d="M104.536 33C102.352 33 100.566 31.5925 99.1771 28.7775C97.8044 25.9624 97.118 21.8623 97.118 16.4771C97.118 11.0612 97.8122 6.96106 99.2005 4.17663C100.604 1.39221 102.406 0 104.606 0C106.821 0 108.607 1.37691 109.964 4.13074C111.321 6.85396 112 11 112 16.5688C112 22.1071 111.306 26.2378 109.917 28.9611C108.529 31.6537 106.735 33 104.536 33ZM104.559 8.81224C103.81 8.81224 103.178 9.4854 102.664 10.8317C102.164 12.178 101.915 14.0751 101.915 16.5229C101.915 18.9402 102.157 20.8067 102.64 22.1224C103.124 23.4075 103.756 24.0501 104.536 24.0501C105.331 24.0501 105.971 23.3922 106.454 22.0765C106.954 20.7608 107.203 18.879 107.203 16.4312C107.203 13.9833 106.946 12.1015 106.431 10.7858C105.932 9.4701 105.308 8.81224 104.559 8.81224Z" fill="black"/>
<path d="M114.593 2.19372H113.825L113.818 1.8517H114.533C114.632 1.84992 114.724 1.83656 114.808 1.81162C114.895 1.78668 114.965 1.75106 115.016 1.70474C115.07 1.65665 115.097 1.59786 115.097 1.52839C115.097 1.43932 115.077 1.36896 115.037 1.3173C114.997 1.26564 114.93 1.22823 114.837 1.20508C114.745 1.18192 114.619 1.17034 114.459 1.17034H113.98V3.09686H113.483V0.830995H114.459C114.692 0.830995 114.893 0.855934 115.062 0.905812C115.231 0.955689 115.362 1.0314 115.453 1.13293C115.545 1.23269 115.591 1.35916 115.591 1.51236C115.591 1.60855 115.561 1.69495 115.502 1.77154C115.444 1.84814 115.358 1.91405 115.245 1.96927C115.132 2.02449 114.995 2.06903 114.833 2.10287C114.826 2.10287 114.818 2.10911 114.808 2.12158C114.801 2.13226 114.794 2.13761 114.787 2.13761C114.747 2.15542 114.721 2.16878 114.71 2.17769C114.7 2.18481 114.69 2.18927 114.678 2.19105C114.669 2.19283 114.64 2.19372 114.593 2.19372ZM114.558 2.19372L114.629 1.95324C114.993 1.95324 115.241 2.01202 115.372 2.12959C115.506 2.24538 115.573 2.39234 115.573 2.57047V2.71476C115.573 2.78067 115.578 2.84391 115.587 2.90448C115.596 2.96326 115.612 3.01314 115.633 3.05411V3.09686H115.122C115.098 3.05055 115.084 2.98464 115.08 2.89913C115.077 2.81363 115.076 2.75128 115.076 2.71209V2.57315C115.076 2.44311 115.036 2.34781 114.956 2.28724C114.879 2.22489 114.746 2.19372 114.558 2.19372ZM112.405 1.99599C112.405 2.23291 112.459 2.4538 112.567 2.65865C112.675 2.8635 112.826 3.04253 113.018 3.19572C113.211 3.34892 113.434 3.46827 113.688 3.55377C113.942 3.63928 114.213 3.68203 114.502 3.68203C114.791 3.68203 115.061 3.63928 115.312 3.55377C115.566 3.46827 115.788 3.34892 115.978 3.19572C116.171 3.04253 116.321 2.8635 116.429 2.65865C116.537 2.4538 116.591 2.23291 116.591 1.99599C116.591 1.75729 116.537 1.53641 116.429 1.33333C116.321 1.13026 116.171 0.953017 115.978 0.801603C115.788 0.648408 115.566 0.529949 115.312 0.446226C115.061 0.360721 114.791 0.317969 114.502 0.317969C114.213 0.317969 113.942 0.360721 113.688 0.446226C113.434 0.529949 113.211 0.648408 113.018 0.801603C112.826 0.953017 112.675 1.13026 112.567 1.33333C112.459 1.53641 112.405 1.75729 112.405 1.99599ZM112 1.99599C112 1.71276 112.065 1.45001 112.194 1.20775C112.323 0.965487 112.503 0.754398 112.733 0.574482C112.963 0.392786 113.229 0.25206 113.529 0.152305C113.832 0.0507682 114.156 0 114.502 0C114.847 0 115.17 0.0507682 115.471 0.152305C115.774 0.25206 116.039 0.392786 116.267 0.574482C116.497 0.754398 116.677 0.965487 116.806 1.20775C116.935 1.45001 117 1.71276 117 1.99599C117 2.27923 116.935 2.54197 116.806 2.78424C116.677 3.0265 116.497 3.23937 116.267 3.42285C116.039 3.60454 115.774 3.74616 115.471 3.8477C115.17 3.94923 114.847 4 114.502 4C114.156 4 113.832 3.94923 113.529 3.8477C113.229 3.74616 112.963 3.60454 112.733 3.42285C112.503 3.23937 112.323 3.0265 112.194 2.78424C112.065 2.54197 112 2.27923 112 1.99599Z" fill="black"/>
</g>
<defs>
<clipPath id="clip0_56_6817">
<rect width="117" height="33" fill="white"/>
</clipPath>
</defs>
</svg>
